P2
# Exemple de fichier au format PGM (source Wikipédia)
8 8
15 
0  0  0  0  0  0  0  0
0  3  3  3  3  0  0  7
0  3  0  0  0  0  0  7
0  3  3  3  0  0  0  7
0  3  0  0  0  0  0  7
0  3  0  0  0  0  0  7
0  0  0  0  0  0  0  0
0  0  0  0  0  0  0  0